<mxfile host="app.diagrams.net" modified="2022-11-05T01:46:07.787Z" agent="5.0 (Macintosh; Intel Mac OS X 10_15_7) AppleWebKit/537.36 (KHTML, like Gecko) Chrome/107.0.0.0 Safari/537.36" etag="MtoYUd-uRLq5QbjpsU_X" version="20.5.2" type="github">
  <diagram id="3US8Cws5q77gIgs7kbSS" name="Page-1">
    <mxGraphModel dx="1143" dy="1615" grid="1" gridSize="10" guides="1" tooltips="1" connect="1" arrows="1" fold="1" page="1" pageScale="1" pageWidth="1100" pageHeight="850" math="0" shadow="0">
      <root>
        <mxCell id="0" />
        <mxCell id="1" parent="0" />
        <mxCell id="_6cfe_EumQ2GmOHVlZRL-25" style="edgeStyle=entityRelationEdgeStyle;rounded=0;orthogonalLoop=1;jettySize=auto;html=1;entryX=0;entryY=0.5;entryDx=0;entryDy=0;strokeColor=#7EA6E0;strokeWidth=3;endArrow=none;endFill=0;" edge="1" parent="1" source="_6cfe_EumQ2GmOHVlZRL-6" target="_6cfe_EumQ2GmOHVlZRL-14">
          <mxGeometry relative="1" as="geometry" />
        </mxCell>
        <mxCell id="_6cfe_EumQ2GmOHVlZRL-46" style="edgeStyle=orthogonalEdgeStyle;rounded=0;orthogonalLoop=1;jettySize=auto;html=1;entryX=0.333;entryY=0.667;entryDx=0;entryDy=0;entryPerimeter=0;strokeColor=#000000;strokeWidth=3;endArrow=none;endFill=0;exitX=1;exitY=0.25;exitDx=0;exitDy=0;" edge="1" parent="1" source="_6cfe_EumQ2GmOHVlZRL-2" target="_6cfe_EumQ2GmOHVlZRL-6">
          <mxGeometry relative="1" as="geometry" />
        </mxCell>
        <mxCell id="_6cfe_EumQ2GmOHVlZRL-1" value="" style="shape=image;html=1;verticalAlign=top;verticalLabelPosition=bottom;labelBackgroundColor=#ffffff;imageAspect=0;aspect=fixed;image=https://cdn3.iconfinder.com/data/icons/energy-and-power-glyph-24-px/24/Automotive_battery_battery_charging_car_battery_truck_battery_vehicle_battery_3-128.png" vertex="1" parent="1">
          <mxGeometry x="52.5" y="300" width="120" height="120" as="geometry" />
        </mxCell>
        <mxCell id="_6cfe_EumQ2GmOHVlZRL-49" style="edgeStyle=orthogonalEdgeStyle;rounded=0;orthogonalLoop=1;jettySize=auto;html=1;strokeColor=#000000;strokeWidth=3;endArrow=none;endFill=0;" edge="1" parent="1" source="_6cfe_EumQ2GmOHVlZRL-2">
          <mxGeometry relative="1" as="geometry">
            <mxPoint x="382.5" y="380" as="targetPoint" />
          </mxGeometry>
        </mxCell>
        <mxCell id="_6cfe_EumQ2GmOHVlZRL-2" value="Dist.&lt;br&gt;Block" style="whiteSpace=wrap;html=1;aspect=fixed;strokeWidth=3;strokeColor=#808080;" vertex="1" parent="1">
          <mxGeometry x="362.5" y="340" width="40" height="40" as="geometry" />
        </mxCell>
        <mxCell id="_6cfe_EumQ2GmOHVlZRL-38" style="edgeStyle=orthogonalEdgeStyle;rounded=0;orthogonalLoop=1;jettySize=auto;html=1;strokeColor=#EA6B66;strokeWidth=3;endArrow=none;endFill=0;" edge="1" parent="1" source="_6cfe_EumQ2GmOHVlZRL-3">
          <mxGeometry relative="1" as="geometry">
            <mxPoint x="532.5" y="280" as="targetPoint" />
          </mxGeometry>
        </mxCell>
        <mxCell id="_6cfe_EumQ2GmOHVlZRL-3" value="Dist.&lt;br&gt;Block" style="whiteSpace=wrap;html=1;aspect=fixed;strokeWidth=3;strokeColor=#808080;" vertex="1" parent="1">
          <mxGeometry x="472.5" y="260" width="40" height="40" as="geometry" />
        </mxCell>
        <mxCell id="_6cfe_EumQ2GmOHVlZRL-40" style="edgeStyle=orthogonalEdgeStyle;rounded=0;orthogonalLoop=1;jettySize=auto;html=1;strokeColor=#EA6B66;strokeWidth=3;endArrow=none;endFill=0;entryX=0.75;entryY=0;entryDx=0;entryDy=0;" edge="1" parent="1" source="_6cfe_EumQ2GmOHVlZRL-5" target="_6cfe_EumQ2GmOHVlZRL-1">
          <mxGeometry relative="1" as="geometry" />
        </mxCell>
        <mxCell id="_6cfe_EumQ2GmOHVlZRL-5" value="Fuse" style="rounded=0;whiteSpace=wrap;html=1;strokeColor=#808080;strokeWidth=3;" vertex="1" parent="1">
          <mxGeometry x="242.5" y="270" width="40" height="20" as="geometry" />
        </mxCell>
        <mxCell id="_6cfe_EumQ2GmOHVlZRL-39" style="edgeStyle=orthogonalEdgeStyle;rounded=0;orthogonalLoop=1;jettySize=auto;html=1;entryX=1;entryY=0.5;entryDx=0;entryDy=0;strokeColor=#EA6B66;strokeWidth=3;endArrow=none;endFill=0;" edge="1" parent="1" source="_6cfe_EumQ2GmOHVlZRL-3" target="_6cfe_EumQ2GmOHVlZRL-5">
          <mxGeometry relative="1" as="geometry" />
        </mxCell>
        <mxCell id="_6cfe_EumQ2GmOHVlZRL-33" style="edgeStyle=orthogonalEdgeStyle;rounded=0;orthogonalLoop=1;jettySize=auto;html=1;entryX=0.75;entryY=1;entryDx=0;entryDy=0;strokeColor=#EA6B66;strokeWidth=3;endArrow=none;endFill=0;" edge="1" parent="1" source="_6cfe_EumQ2GmOHVlZRL-6" target="_6cfe_EumQ2GmOHVlZRL-3">
          <mxGeometry relative="1" as="geometry" />
        </mxCell>
        <mxCell id="_6cfe_EumQ2GmOHVlZRL-6" value="Amplifier" style="rounded=1;whiteSpace=wrap;html=1;strokeColor=#B5739D;strokeWidth=3;" vertex="1" parent="1">
          <mxGeometry x="602.5" y="310" width="120" height="60" as="geometry" />
        </mxCell>
        <mxCell id="_6cfe_EumQ2GmOHVlZRL-35" style="edgeStyle=orthogonalEdgeStyle;rounded=0;orthogonalLoop=1;jettySize=auto;html=1;strokeColor=#EA6B66;strokeWidth=3;endArrow=none;endFill=0;entryX=0.25;entryY=1;entryDx=0;entryDy=0;" edge="1" parent="1" source="_6cfe_EumQ2GmOHVlZRL-7" target="_6cfe_EumQ2GmOHVlZRL-3">
          <mxGeometry relative="1" as="geometry">
            <mxPoint x="502.5" y="330" as="targetPoint" />
          </mxGeometry>
        </mxCell>
        <mxCell id="_6cfe_EumQ2GmOHVlZRL-7" value="Mono Amplifier" style="rounded=1;whiteSpace=wrap;html=1;strokeColor=#B5739D;strokeWidth=3;" vertex="1" parent="1">
          <mxGeometry x="602.5" y="590" width="120" height="60" as="geometry" />
        </mxCell>
        <mxCell id="_6cfe_EumQ2GmOHVlZRL-47" style="edgeStyle=orthogonalEdgeStyle;rounded=0;orthogonalLoop=1;jettySize=auto;html=1;entryX=0;entryY=0.25;entryDx=0;entryDy=0;strokeColor=#000000;strokeWidth=3;endArrow=none;endFill=0;exitX=1;exitY=0.75;exitDx=0;exitDy=0;" edge="1" parent="1" source="_6cfe_EumQ2GmOHVlZRL-2" target="_6cfe_EumQ2GmOHVlZRL-7">
          <mxGeometry relative="1" as="geometry" />
        </mxCell>
        <mxCell id="_6cfe_EumQ2GmOHVlZRL-28" style="rounded=0;orthogonalLoop=1;jettySize=auto;html=1;strokeColor=#FFD966;strokeWidth=3;endArrow=none;endFill=0;" edge="1" parent="1" source="_6cfe_EumQ2GmOHVlZRL-6" target="_6cfe_EumQ2GmOHVlZRL-7">
          <mxGeometry relative="1" as="geometry" />
        </mxCell>
        <mxCell id="_6cfe_EumQ2GmOHVlZRL-29" style="edgeStyle=orthogonalEdgeStyle;rounded=0;orthogonalLoop=1;jettySize=auto;html=1;entryX=0.113;entryY=1.033;entryDx=0;entryDy=0;strokeColor=#FFD966;strokeWidth=3;endArrow=none;endFill=0;exitX=1;exitY=0;exitDx=0;exitDy=0;entryPerimeter=0;" edge="1" parent="1" source="_6cfe_EumQ2GmOHVlZRL-8" target="_6cfe_EumQ2GmOHVlZRL-6">
          <mxGeometry relative="1" as="geometry">
            <mxPoint x="172.5" y="520" as="sourcePoint" />
            <Array as="points">
              <mxPoint x="162.5" y="530" />
              <mxPoint x="616.5" y="530" />
            </Array>
          </mxGeometry>
        </mxCell>
        <mxCell id="_6cfe_EumQ2GmOHVlZRL-30" style="edgeStyle=orthogonalEdgeStyle;rounded=0;orthogonalLoop=1;jettySize=auto;html=1;strokeColor=#FFD966;strokeWidth=3;endArrow=none;endFill=0;exitX=1;exitY=0.5;exitDx=0;exitDy=0;" edge="1" parent="1" source="_6cfe_EumQ2GmOHVlZRL-8">
          <mxGeometry relative="1" as="geometry">
            <mxPoint x="602.5" y="360" as="targetPoint" />
            <Array as="points">
              <mxPoint x="162.5" y="510" />
              <mxPoint x="552.5" y="510" />
              <mxPoint x="552.5" y="360" />
            </Array>
          </mxGeometry>
        </mxCell>
        <mxCell id="_6cfe_EumQ2GmOHVlZRL-32" style="edgeStyle=orthogonalEdgeStyle;rounded=0;orthogonalLoop=1;jettySize=auto;html=1;exitX=1;exitY=1;exitDx=0;exitDy=0;strokeColor=#FFD966;strokeWidth=3;endArrow=none;endFill=0;" edge="1" parent="1" source="_6cfe_EumQ2GmOHVlZRL-8">
          <mxGeometry relative="1" as="geometry">
            <mxPoint x="632.5" y="370" as="targetPoint" />
            <Array as="points">
              <mxPoint x="162.5" y="550" />
              <mxPoint x="632.5" y="550" />
              <mxPoint x="632.5" y="370" />
            </Array>
          </mxGeometry>
        </mxCell>
        <mxCell id="_6cfe_EumQ2GmOHVlZRL-8" value="Head Unit" style="rounded=1;whiteSpace=wrap;html=1;strokeColor=#7EA6E0;strokeWidth=3;" vertex="1" parent="1">
          <mxGeometry x="52.5" y="500" width="120" height="60" as="geometry" />
        </mxCell>
        <mxCell id="_6cfe_EumQ2GmOHVlZRL-9" value="Subwoofer" style="ellipse;whiteSpace=wrap;html=1;aspect=fixed;strokeColor=#EA6B66;strokeWidth=3;" vertex="1" parent="1">
          <mxGeometry x="802.5" y="580" width="80" height="80" as="geometry" />
        </mxCell>
        <mxCell id="_6cfe_EumQ2GmOHVlZRL-10" value="Subwoofer" style="ellipse;whiteSpace=wrap;html=1;aspect=fixed;strokeColor=#EA6B66;strokeWidth=3;" vertex="1" parent="1">
          <mxGeometry x="962.5" y="580" width="80" height="80" as="geometry" />
        </mxCell>
        <mxCell id="_6cfe_EumQ2GmOHVlZRL-19" style="edgeStyle=entityRelationEdgeStyle;rounded=0;orthogonalLoop=1;jettySize=auto;html=1;entryX=0;entryY=0.5;entryDx=0;entryDy=0;endArrow=none;endFill=0;strokeColor=#7EA6E0;strokeWidth=3;" edge="1" parent="1" source="_6cfe_EumQ2GmOHVlZRL-9" target="_6cfe_EumQ2GmOHVlZRL-10">
          <mxGeometry relative="1" as="geometry" />
        </mxCell>
        <mxCell id="_6cfe_EumQ2GmOHVlZRL-11" value="Speaker" style="ellipse;whiteSpace=wrap;html=1;aspect=fixed;strokeColor=#97D077;strokeWidth=3;" vertex="1" parent="1">
          <mxGeometry x="802.5" y="440" width="80" height="80" as="geometry" />
        </mxCell>
        <mxCell id="_6cfe_EumQ2GmOHVlZRL-26" style="edgeStyle=entityRelationEdgeStyle;rounded=0;orthogonalLoop=1;jettySize=auto;html=1;entryX=0;entryY=0.5;entryDx=0;entryDy=0;strokeColor=#7EA6E0;strokeWidth=3;endArrow=none;endFill=0;" edge="1" parent="1" source="_6cfe_EumQ2GmOHVlZRL-6" target="_6cfe_EumQ2GmOHVlZRL-11">
          <mxGeometry relative="1" as="geometry" />
        </mxCell>
        <mxCell id="_6cfe_EumQ2GmOHVlZRL-12" value="Speaker" style="ellipse;whiteSpace=wrap;html=1;aspect=fixed;strokeColor=#97D077;strokeWidth=3;" vertex="1" parent="1">
          <mxGeometry x="962.5" y="440" width="80" height="80" as="geometry" />
        </mxCell>
        <mxCell id="_6cfe_EumQ2GmOHVlZRL-27" style="edgeStyle=entityRelationEdgeStyle;rounded=0;orthogonalLoop=1;jettySize=auto;html=1;entryX=0;entryY=0.5;entryDx=0;entryDy=0;strokeColor=#7EA6E0;strokeWidth=3;endArrow=none;endFill=0;" edge="1" parent="1" source="_6cfe_EumQ2GmOHVlZRL-6" target="_6cfe_EumQ2GmOHVlZRL-12">
          <mxGeometry relative="1" as="geometry" />
        </mxCell>
        <mxCell id="_6cfe_EumQ2GmOHVlZRL-13" value="Speaker" style="ellipse;whiteSpace=wrap;html=1;aspect=fixed;strokeColor=#97D077;strokeWidth=3;" vertex="1" parent="1">
          <mxGeometry x="802.5" y="300" width="80" height="80" as="geometry" />
        </mxCell>
        <mxCell id="_6cfe_EumQ2GmOHVlZRL-22" style="edgeStyle=orthogonalEdgeStyle;rounded=0;orthogonalLoop=1;jettySize=auto;html=1;entryX=0;entryY=0.5;entryDx=0;entryDy=0;strokeColor=#7EA6E0;strokeWidth=3;endArrow=none;endFill=0;" edge="1" parent="1" source="_6cfe_EumQ2GmOHVlZRL-6" target="_6cfe_EumQ2GmOHVlZRL-13">
          <mxGeometry relative="1" as="geometry" />
        </mxCell>
        <mxCell id="_6cfe_EumQ2GmOHVlZRL-14" value="Speaker" style="ellipse;whiteSpace=wrap;html=1;aspect=fixed;strokeColor=#97D077;strokeWidth=3;" vertex="1" parent="1">
          <mxGeometry x="962.5" y="300" width="80" height="80" as="geometry" />
        </mxCell>
        <mxCell id="_6cfe_EumQ2GmOHVlZRL-15" value="Tweeter" style="ellipse;whiteSpace=wrap;html=1;aspect=fixed;strokeColor=#9AC7BF;strokeWidth=3;" vertex="1" parent="1">
          <mxGeometry x="802.5" y="160" width="80" height="80" as="geometry" />
        </mxCell>
        <mxCell id="_6cfe_EumQ2GmOHVlZRL-23" style="edgeStyle=entityRelationEdgeStyle;rounded=0;orthogonalLoop=1;jettySize=auto;html=1;entryX=0;entryY=0.5;entryDx=0;entryDy=0;strokeColor=#7EA6E0;strokeWidth=3;endArrow=none;endFill=0;" edge="1" parent="1" source="_6cfe_EumQ2GmOHVlZRL-6" target="_6cfe_EumQ2GmOHVlZRL-15">
          <mxGeometry relative="1" as="geometry" />
        </mxCell>
        <mxCell id="_6cfe_EumQ2GmOHVlZRL-16" value="Tweeter" style="ellipse;whiteSpace=wrap;html=1;aspect=fixed;strokeColor=#9AC7BF;strokeWidth=3;" vertex="1" parent="1">
          <mxGeometry x="962.5" y="160" width="80" height="80" as="geometry" />
        </mxCell>
        <mxCell id="_6cfe_EumQ2GmOHVlZRL-24" style="edgeStyle=entityRelationEdgeStyle;rounded=0;orthogonalLoop=1;jettySize=auto;html=1;entryX=0;entryY=0.5;entryDx=0;entryDy=0;strokeColor=#7EA6E0;strokeWidth=3;endArrow=none;endFill=0;" edge="1" parent="1" source="_6cfe_EumQ2GmOHVlZRL-6" target="_6cfe_EumQ2GmOHVlZRL-16">
          <mxGeometry relative="1" as="geometry" />
        </mxCell>
        <mxCell id="_6cfe_EumQ2GmOHVlZRL-18" value="" style="endArrow=none;html=1;rounded=0;exitX=1;exitY=0.5;exitDx=0;exitDy=0;entryX=0;entryY=0.5;entryDx=0;entryDy=0;strokeColor=#7EA6E0;strokeWidth=3;edgeStyle=entityRelationEdgeStyle;" edge="1" parent="1" source="_6cfe_EumQ2GmOHVlZRL-7" target="_6cfe_EumQ2GmOHVlZRL-9">
          <mxGeometry width="50" height="50" relative="1" as="geometry">
            <mxPoint x="742.5" y="620" as="sourcePoint" />
            <mxPoint x="742.5" y="670" as="targetPoint" />
          </mxGeometry>
        </mxCell>
        <mxCell id="_6cfe_EumQ2GmOHVlZRL-43" style="edgeStyle=orthogonalEdgeStyle;rounded=0;orthogonalLoop=1;jettySize=auto;html=1;strokeColor=#000000;strokeWidth=3;endArrow=none;endFill=0;" edge="1" parent="1" source="_6cfe_EumQ2GmOHVlZRL-41">
          <mxGeometry relative="1" as="geometry">
            <mxPoint x="83" y="312.5" as="targetPoint" />
            <Array as="points">
              <mxPoint x="83.5" y="255" />
              <mxPoint x="83.5" y="298" />
            </Array>
          </mxGeometry>
        </mxCell>
        <mxCell id="_6cfe_EumQ2GmOHVlZRL-41" value="" style="pointerEvents=1;verticalLabelPosition=bottom;shadow=0;dashed=0;align=center;html=1;verticalAlign=top;shape=mxgraph.electrical.signal_sources.signal_ground;strokeColor=#000000;strokeWidth=3;rotation=90;" vertex="1" parent="1">
          <mxGeometry x="32.5" y="240" width="45" height="30" as="geometry" />
        </mxCell>
        <mxCell id="_6cfe_EumQ2GmOHVlZRL-45" style="edgeStyle=orthogonalEdgeStyle;rounded=0;orthogonalLoop=1;jettySize=auto;html=1;entryX=0;entryY=0.5;entryDx=0;entryDy=0;strokeColor=#000000;strokeWidth=3;endArrow=none;endFill=0;" edge="1" parent="1" source="_6cfe_EumQ2GmOHVlZRL-44" target="_6cfe_EumQ2GmOHVlZRL-2">
          <mxGeometry relative="1" as="geometry" />
        </mxCell>
        <mxCell id="_6cfe_EumQ2GmOHVlZRL-44" value="" style="pointerEvents=1;verticalLabelPosition=bottom;shadow=0;dashed=0;align=center;html=1;verticalAlign=top;shape=mxgraph.electrical.signal_sources.signal_ground;strokeColor=#000000;strokeWidth=3;rotation=90;" vertex="1" parent="1">
          <mxGeometry x="272.5" y="345" width="45" height="30" as="geometry" />
        </mxCell>
      </root>
    </mxGraphModel>
  </diagram>
</mxfile>
